<mxfile host="app.diagrams.net" agent="Mozilla/5.0 (Windows NT 10.0; Win64; x64) AppleWebKit/537.36 (KHTML, like Gecko) Chrome/135.0.0.0 Safari/537.36" version="26.1.2">
  <diagram name="Page-1" id="53TEYDo6qviIUdf_4lef">
    <mxGraphModel dx="840" dy="459" grid="1" gridSize="10" guides="1" tooltips="1" connect="1" arrows="1" fold="1" page="1" pageScale="1" pageWidth="2336" pageHeight="1654" math="0" shadow="0">
      <root>
        <mxCell id="0" />
        <mxCell id="1" parent="0" />
        <mxCell id="QgVTkhxCrHXW8KOB9V6D-4" value="" style="group" vertex="1" connectable="0" parent="1">
          <mxGeometry x="240" y="90" width="60" height="120" as="geometry" />
        </mxCell>
        <mxCell id="QgVTkhxCrHXW8KOB9V6D-1" value="Reg A" style="rounded=0;whiteSpace=wrap;html=1;direction=south;movable=1;resizable=1;rotatable=1;deletable=1;editable=1;locked=0;connectable=1;container=0;" vertex="1" parent="QgVTkhxCrHXW8KOB9V6D-4">
          <mxGeometry y="-10" width="60" height="120" as="geometry" />
        </mxCell>
        <mxCell id="QgVTkhxCrHXW8KOB9V6D-2" value="" style="triangle;whiteSpace=wrap;html=1;movable=1;resizable=1;rotatable=1;deletable=1;editable=1;locked=0;connectable=1;container=0;" vertex="1" parent="QgVTkhxCrHXW8KOB9V6D-4">
          <mxGeometry y="90" width="20" height="20" as="geometry" />
        </mxCell>
        <mxCell id="QgVTkhxCrHXW8KOB9V6D-5" value="" style="group" vertex="1" connectable="0" parent="1">
          <mxGeometry x="240" y="260" width="60" height="120" as="geometry" />
        </mxCell>
        <mxCell id="QgVTkhxCrHXW8KOB9V6D-6" value="Reg B" style="rounded=0;whiteSpace=wrap;html=1;direction=south;movable=1;resizable=1;rotatable=1;deletable=1;editable=1;locked=0;connectable=1;container=0;" vertex="1" parent="QgVTkhxCrHXW8KOB9V6D-5">
          <mxGeometry width="60" height="120" as="geometry" />
        </mxCell>
        <mxCell id="QgVTkhxCrHXW8KOB9V6D-7" value="" style="triangle;whiteSpace=wrap;html=1;movable=1;resizable=1;rotatable=1;deletable=1;editable=1;locked=0;connectable=1;container=0;" vertex="1" parent="QgVTkhxCrHXW8KOB9V6D-5">
          <mxGeometry y="90" width="20" height="20" as="geometry" />
        </mxCell>
        <mxCell id="QgVTkhxCrHXW8KOB9V6D-14" style="edgeStyle=orthogonalEdgeStyle;rounded=0;orthogonalLoop=1;jettySize=auto;html=1;exitX=0.75;exitY=1;exitDx=0;exitDy=0;entryX=1;entryY=0.5;entryDx=0;entryDy=0;jumpStyle=arc;" edge="1" parent="1" target="QgVTkhxCrHXW8KOB9V6D-1">
          <mxGeometry relative="1" as="geometry">
            <mxPoint x="200" y="560" as="sourcePoint" />
            <mxPoint x="277.5" y="200" as="targetPoint" />
            <Array as="points">
              <mxPoint x="200" y="230" />
              <mxPoint x="270" y="230" />
            </Array>
          </mxGeometry>
        </mxCell>
        <mxCell id="QgVTkhxCrHXW8KOB9V6D-27" value="load_A" style="edgeLabel;html=1;align=center;verticalAlign=middle;resizable=0;points=[];" vertex="1" connectable="0" parent="QgVTkhxCrHXW8KOB9V6D-14">
          <mxGeometry x="-0.7915" y="3" relative="1" as="geometry">
            <mxPoint as="offset" />
          </mxGeometry>
        </mxCell>
        <mxCell id="QgVTkhxCrHXW8KOB9V6D-23" style="edgeStyle=orthogonalEdgeStyle;rounded=0;orthogonalLoop=1;jettySize=auto;html=1;entryX=1;entryY=0.5;entryDx=0;entryDy=0;" edge="1" parent="1" source="QgVTkhxCrHXW8KOB9V6D-8" target="QgVTkhxCrHXW8KOB9V6D-6">
          <mxGeometry relative="1" as="geometry" />
        </mxCell>
        <mxCell id="QgVTkhxCrHXW8KOB9V6D-28" value="load_B" style="edgeLabel;html=1;align=center;verticalAlign=middle;resizable=0;points=[];" vertex="1" connectable="0" parent="QgVTkhxCrHXW8KOB9V6D-23">
          <mxGeometry x="-0.6196" y="-3" relative="1" as="geometry">
            <mxPoint as="offset" />
          </mxGeometry>
        </mxCell>
        <mxCell id="QgVTkhxCrHXW8KOB9V6D-25" style="edgeStyle=orthogonalEdgeStyle;rounded=0;orthogonalLoop=1;jettySize=auto;html=1;exitX=0.25;exitY=1;exitDx=0;exitDy=0;" edge="1" parent="1" source="QgVTkhxCrHXW8KOB9V6D-8" target="QgVTkhxCrHXW8KOB9V6D-26">
          <mxGeometry relative="1" as="geometry">
            <mxPoint x="329.9565217391305" y="500" as="targetPoint" />
          </mxGeometry>
        </mxCell>
        <mxCell id="QgVTkhxCrHXW8KOB9V6D-29" value="load_Opcode" style="edgeLabel;html=1;align=center;verticalAlign=middle;resizable=0;points=[];" vertex="1" connectable="0" parent="QgVTkhxCrHXW8KOB9V6D-25">
          <mxGeometry x="-0.556" relative="1" as="geometry">
            <mxPoint as="offset" />
          </mxGeometry>
        </mxCell>
        <mxCell id="QgVTkhxCrHXW8KOB9V6D-8" value="&lt;div&gt;Alu&lt;/div&gt;Control unit" style="rounded=0;whiteSpace=wrap;html=1;direction=west;" vertex="1" parent="1">
          <mxGeometry x="150" y="560" width="240" height="60" as="geometry" />
        </mxCell>
        <mxCell id="QgVTkhxCrHXW8KOB9V6D-10" value="" style="endArrow=classic;html=1;rounded=0;" edge="1" parent="1">
          <mxGeometry width="50" height="50" relative="1" as="geometry">
            <mxPoint x="130" y="140" as="sourcePoint" />
            <mxPoint x="240" y="140" as="targetPoint" />
          </mxGeometry>
        </mxCell>
        <mxCell id="QgVTkhxCrHXW8KOB9V6D-11" value="&lt;font style=&quot;font-size: 18px;&quot;&gt;A&lt;/font&gt;" style="text;html=1;align=center;verticalAlign=middle;resizable=0;points=[];autosize=1;strokeColor=none;fillColor=none;" vertex="1" parent="1">
          <mxGeometry x="110" y="113" width="40" height="40" as="geometry" />
        </mxCell>
        <mxCell id="QgVTkhxCrHXW8KOB9V6D-12" value="" style="endArrow=classic;html=1;rounded=0;entryX=0.5;entryY=1;entryDx=0;entryDy=0;exitX=0.5;exitY=0.75;exitDx=0;exitDy=0;exitPerimeter=0;" edge="1" parent="1" source="QgVTkhxCrHXW8KOB9V6D-13" target="QgVTkhxCrHXW8KOB9V6D-6">
          <mxGeometry width="50" height="50" relative="1" as="geometry">
            <mxPoint x="150" y="320" as="sourcePoint" />
            <mxPoint x="230" y="410" as="targetPoint" />
          </mxGeometry>
        </mxCell>
        <mxCell id="QgVTkhxCrHXW8KOB9V6D-13" value="&lt;font style=&quot;font-size: 18px;&quot;&gt;B&lt;/font&gt;" style="text;html=1;align=center;verticalAlign=middle;resizable=0;points=[];autosize=1;strokeColor=none;fillColor=none;" vertex="1" parent="1">
          <mxGeometry x="100" y="290" width="40" height="40" as="geometry" />
        </mxCell>
        <mxCell id="QgVTkhxCrHXW8KOB9V6D-16" value="" style="endArrow=none;html=1;rounded=0;" edge="1" parent="1">
          <mxGeometry width="50" height="50" relative="1" as="geometry">
            <mxPoint x="200" y="123" as="sourcePoint" />
            <mxPoint x="180" y="143" as="targetPoint" />
          </mxGeometry>
        </mxCell>
        <mxCell id="QgVTkhxCrHXW8KOB9V6D-17" value="32" style="text;html=1;align=center;verticalAlign=middle;resizable=0;points=[];autosize=1;strokeColor=none;fillColor=none;" vertex="1" parent="1">
          <mxGeometry x="160" y="113" width="40" height="30" as="geometry" />
        </mxCell>
        <mxCell id="QgVTkhxCrHXW8KOB9V6D-18" value="" style="endArrow=none;html=1;rounded=0;" edge="1" parent="1">
          <mxGeometry width="50" height="50" relative="1" as="geometry">
            <mxPoint x="190" y="305" as="sourcePoint" />
            <mxPoint x="170" y="325" as="targetPoint" />
          </mxGeometry>
        </mxCell>
        <mxCell id="QgVTkhxCrHXW8KOB9V6D-19" value="32" style="text;html=1;align=center;verticalAlign=middle;resizable=0;points=[];autosize=1;strokeColor=none;fillColor=none;" vertex="1" parent="1">
          <mxGeometry x="150" y="295" width="40" height="30" as="geometry" />
        </mxCell>
        <mxCell id="QgVTkhxCrHXW8KOB9V6D-38" style="edgeStyle=orthogonalEdgeStyle;rounded=0;orthogonalLoop=1;jettySize=auto;html=1;entryX=1;entryY=0.5;entryDx=0;entryDy=0;" edge="1" parent="1" source="QgVTkhxCrHXW8KOB9V6D-26" target="QgVTkhxCrHXW8KOB9V6D-34">
          <mxGeometry relative="1" as="geometry">
            <Array as="points">
              <mxPoint x="540" y="440" />
            </Array>
          </mxGeometry>
        </mxCell>
        <mxCell id="QgVTkhxCrHXW8KOB9V6D-26" value="Opcode" style="whiteSpace=wrap;html=1;aspect=fixed;" vertex="1" parent="1">
          <mxGeometry x="289.9565217391305" y="400" width="80" height="80" as="geometry" />
        </mxCell>
        <mxCell id="QgVTkhxCrHXW8KOB9V6D-47" style="edgeStyle=orthogonalEdgeStyle;rounded=0;orthogonalLoop=1;jettySize=auto;html=1;entryX=0;entryY=0.25;entryDx=0;entryDy=0;" edge="1" parent="1" source="QgVTkhxCrHXW8KOB9V6D-32" target="QgVTkhxCrHXW8KOB9V6D-40">
          <mxGeometry relative="1" as="geometry" />
        </mxCell>
        <mxCell id="QgVTkhxCrHXW8KOB9V6D-57" style="edgeStyle=orthogonalEdgeStyle;rounded=0;orthogonalLoop=1;jettySize=auto;html=1;entryX=0;entryY=0.25;entryDx=0;entryDy=0;" edge="1" parent="1" source="QgVTkhxCrHXW8KOB9V6D-32" target="QgVTkhxCrHXW8KOB9V6D-43">
          <mxGeometry relative="1" as="geometry" />
        </mxCell>
        <mxCell id="QgVTkhxCrHXW8KOB9V6D-59" style="edgeStyle=orthogonalEdgeStyle;rounded=0;orthogonalLoop=1;jettySize=auto;html=1;entryX=0;entryY=0.25;entryDx=0;entryDy=0;" edge="1" parent="1" source="QgVTkhxCrHXW8KOB9V6D-32" target="QgVTkhxCrHXW8KOB9V6D-44">
          <mxGeometry relative="1" as="geometry" />
        </mxCell>
        <mxCell id="QgVTkhxCrHXW8KOB9V6D-63" style="edgeStyle=orthogonalEdgeStyle;rounded=0;orthogonalLoop=1;jettySize=auto;html=1;entryX=0;entryY=0.25;entryDx=0;entryDy=0;" edge="1" parent="1" source="QgVTkhxCrHXW8KOB9V6D-32" target="QgVTkhxCrHXW8KOB9V6D-46">
          <mxGeometry relative="1" as="geometry" />
        </mxCell>
        <mxCell id="QgVTkhxCrHXW8KOB9V6D-72" style="edgeStyle=orthogonalEdgeStyle;rounded=0;orthogonalLoop=1;jettySize=auto;html=1;entryX=0;entryY=0.75;entryDx=0;entryDy=0;" edge="1" parent="1" source="QgVTkhxCrHXW8KOB9V6D-32" target="QgVTkhxCrHXW8KOB9V6D-70">
          <mxGeometry relative="1" as="geometry" />
        </mxCell>
        <mxCell id="QgVTkhxCrHXW8KOB9V6D-32" value="Demux A" style="rounded=0;whiteSpace=wrap;html=1;direction=south;" vertex="1" parent="1">
          <mxGeometry x="510" y="80" width="60" height="120" as="geometry" />
        </mxCell>
        <mxCell id="QgVTkhxCrHXW8KOB9V6D-33" style="edgeStyle=orthogonalEdgeStyle;rounded=0;orthogonalLoop=1;jettySize=auto;html=1;entryX=0.5;entryY=1;entryDx=0;entryDy=0;" edge="1" parent="1" source="QgVTkhxCrHXW8KOB9V6D-1" target="QgVTkhxCrHXW8KOB9V6D-32">
          <mxGeometry relative="1" as="geometry" />
        </mxCell>
        <mxCell id="QgVTkhxCrHXW8KOB9V6D-48" style="edgeStyle=orthogonalEdgeStyle;rounded=0;orthogonalLoop=1;jettySize=auto;html=1;entryX=0;entryY=0.75;entryDx=0;entryDy=0;" edge="1" parent="1" source="QgVTkhxCrHXW8KOB9V6D-34" target="QgVTkhxCrHXW8KOB9V6D-40">
          <mxGeometry relative="1" as="geometry">
            <mxPoint x="640" y="230" as="targetPoint" />
          </mxGeometry>
        </mxCell>
        <mxCell id="QgVTkhxCrHXW8KOB9V6D-53" style="edgeStyle=orthogonalEdgeStyle;rounded=0;orthogonalLoop=1;jettySize=auto;html=1;entryX=0;entryY=0.75;entryDx=0;entryDy=0;" edge="1" parent="1" source="QgVTkhxCrHXW8KOB9V6D-34" target="QgVTkhxCrHXW8KOB9V6D-41">
          <mxGeometry relative="1" as="geometry" />
        </mxCell>
        <mxCell id="QgVTkhxCrHXW8KOB9V6D-54" style="edgeStyle=orthogonalEdgeStyle;rounded=0;orthogonalLoop=1;jettySize=auto;html=1;entryX=0;entryY=0.5;entryDx=0;entryDy=0;" edge="1" parent="1" source="QgVTkhxCrHXW8KOB9V6D-34" target="QgVTkhxCrHXW8KOB9V6D-42">
          <mxGeometry relative="1" as="geometry" />
        </mxCell>
        <mxCell id="QgVTkhxCrHXW8KOB9V6D-58" style="edgeStyle=orthogonalEdgeStyle;rounded=0;orthogonalLoop=1;jettySize=auto;html=1;entryX=0;entryY=0.75;entryDx=0;entryDy=0;" edge="1" parent="1" source="QgVTkhxCrHXW8KOB9V6D-34" target="QgVTkhxCrHXW8KOB9V6D-43">
          <mxGeometry relative="1" as="geometry" />
        </mxCell>
        <mxCell id="QgVTkhxCrHXW8KOB9V6D-60" style="edgeStyle=orthogonalEdgeStyle;rounded=0;orthogonalLoop=1;jettySize=auto;html=1;entryX=0;entryY=0.75;entryDx=0;entryDy=0;" edge="1" parent="1" source="QgVTkhxCrHXW8KOB9V6D-34" target="QgVTkhxCrHXW8KOB9V6D-44">
          <mxGeometry relative="1" as="geometry" />
        </mxCell>
        <mxCell id="QgVTkhxCrHXW8KOB9V6D-62" style="edgeStyle=orthogonalEdgeStyle;rounded=0;orthogonalLoop=1;jettySize=auto;html=1;entryX=0;entryY=0.75;entryDx=0;entryDy=0;" edge="1" parent="1" source="QgVTkhxCrHXW8KOB9V6D-34" target="QgVTkhxCrHXW8KOB9V6D-45">
          <mxGeometry relative="1" as="geometry" />
        </mxCell>
        <mxCell id="QgVTkhxCrHXW8KOB9V6D-64" style="edgeStyle=orthogonalEdgeStyle;rounded=0;orthogonalLoop=1;jettySize=auto;html=1;entryX=0;entryY=0.75;entryDx=0;entryDy=0;" edge="1" parent="1" source="QgVTkhxCrHXW8KOB9V6D-34" target="QgVTkhxCrHXW8KOB9V6D-46">
          <mxGeometry relative="1" as="geometry" />
        </mxCell>
        <mxCell id="QgVTkhxCrHXW8KOB9V6D-34" value="Demux B" style="rounded=0;whiteSpace=wrap;html=1;direction=south;" vertex="1" parent="1">
          <mxGeometry x="510" y="260" width="60" height="120" as="geometry" />
        </mxCell>
        <mxCell id="QgVTkhxCrHXW8KOB9V6D-35" style="edgeStyle=orthogonalEdgeStyle;rounded=0;orthogonalLoop=1;jettySize=auto;html=1;entryX=0.5;entryY=1;entryDx=0;entryDy=0;" edge="1" parent="1" source="QgVTkhxCrHXW8KOB9V6D-6" target="QgVTkhxCrHXW8KOB9V6D-34">
          <mxGeometry relative="1" as="geometry" />
        </mxCell>
        <mxCell id="QgVTkhxCrHXW8KOB9V6D-39" value="" style="endArrow=classic;html=1;rounded=0;entryX=1;entryY=0.5;entryDx=0;entryDy=0;jumpStyle=arc;" edge="1" parent="1" target="QgVTkhxCrHXW8KOB9V6D-32">
          <mxGeometry width="50" height="50" relative="1" as="geometry">
            <mxPoint x="440" y="440" as="sourcePoint" />
            <mxPoint x="530" y="200" as="targetPoint" />
            <Array as="points">
              <mxPoint x="440" y="240" />
              <mxPoint x="540" y="240" />
            </Array>
          </mxGeometry>
        </mxCell>
        <mxCell id="QgVTkhxCrHXW8KOB9V6D-40" value="Subtractor" style="rounded=0;whiteSpace=wrap;html=1;" vertex="1" parent="1">
          <mxGeometry x="690" y="173" width="120" height="37" as="geometry" />
        </mxCell>
        <mxCell id="QgVTkhxCrHXW8KOB9V6D-41" value="Adder&lt;span style=&quot;color: rgba(0, 0, 0, 0); font-family: monospace; font-size: 0px; text-align: start; text-wrap-mode: nowrap;&quot;&gt;%3CmxGraphModel%3E%3Croot%3E%3CmxCell%20id%3D%220%22%2F%3E%3CmxCell%20id%3D%221%22%20parent%3D%220%22%2F%3E%3CmxCell%20id%3D%222%22%20value%3D%22Subtractor%22%20style%3D%22rounded%3D0%3BwhiteSpace%3Dwrap%3Bhtml%3D1%3B%22%20vertex%3D%221%22%20parent%3D%221%22%3E%3CmxGeometry%20x%3D%22690%22%20y%3D%22113%22%20width%3D%22120%22%20height%3D%2237%22%20as%3D%22geometry%22%2F%3E%3C%2FmxCell%3E%3C%2Froot%3E%3C%2FmxGraphModel%3E&lt;/span&gt;" style="rounded=0;whiteSpace=wrap;html=1;" vertex="1" parent="1">
          <mxGeometry x="690" y="223" width="120" height="37" as="geometry" />
        </mxCell>
        <mxCell id="QgVTkhxCrHXW8KOB9V6D-42" value="Increment" style="rounded=0;whiteSpace=wrap;html=1;" vertex="1" parent="1">
          <mxGeometry x="690" y="270" width="120" height="37" as="geometry" />
        </mxCell>
        <mxCell id="QgVTkhxCrHXW8KOB9V6D-43" value="AND&lt;span style=&quot;color: rgba(0, 0, 0, 0); font-family: monospace; font-size: 0px; text-align: start; text-wrap-mode: nowrap;&quot;&gt;%3CmxGraphModel%3E%3Croot%3E%3CmxCell%20id%3D%220%22%2F%3E%3CmxCell%20id%3D%221%22%20parent%3D%220%22%2F%3E%3CmxCell%20id%3D%222%22%20value%3D%22Subtractor%22%20style%3D%22rounded%3D0%3BwhiteSpace%3Dwrap%3Bhtml%3D1%3B%22%20vertex%3D%221%22%20parent%3D%221%22%3E%3CmxGeometry%20x%3D%22690%22%20y%3D%22113%22%20width%3D%22120%22%20height%3D%2237%22%20as%3D%22geometry%22%2F%3E%3C%2FmxCell%3E%3C%2Froot%3E%3C%2FmxGraphModel%3E&lt;/span&gt;" style="rounded=0;whiteSpace=wrap;html=1;" vertex="1" parent="1">
          <mxGeometry x="690" y="350" width="120" height="37" as="geometry" />
        </mxCell>
        <mxCell id="QgVTkhxCrHXW8KOB9V6D-44" value="OR" style="rounded=0;whiteSpace=wrap;html=1;" vertex="1" parent="1">
          <mxGeometry x="690" y="400" width="120" height="37" as="geometry" />
        </mxCell>
        <mxCell id="QgVTkhxCrHXW8KOB9V6D-45" value="XOR" style="rounded=0;whiteSpace=wrap;html=1;" vertex="1" parent="1">
          <mxGeometry x="690" y="443" width="120" height="37" as="geometry" />
        </mxCell>
        <mxCell id="QgVTkhxCrHXW8KOB9V6D-46" value="NOT" style="rounded=0;whiteSpace=wrap;html=1;" vertex="1" parent="1">
          <mxGeometry x="690" y="490" width="120" height="37" as="geometry" />
        </mxCell>
        <mxCell id="QgVTkhxCrHXW8KOB9V6D-49" value="" style="endArrow=classic;html=1;rounded=0;entryX=0;entryY=0.25;entryDx=0;entryDy=0;jumpStyle=arc;" edge="1" parent="1" target="QgVTkhxCrHXW8KOB9V6D-41">
          <mxGeometry width="50" height="50" relative="1" as="geometry">
            <mxPoint x="590" y="140" as="sourcePoint" />
            <mxPoint x="955" y="360" as="targetPoint" />
            <Array as="points">
              <mxPoint x="590" y="232" />
            </Array>
          </mxGeometry>
        </mxCell>
        <mxCell id="QgVTkhxCrHXW8KOB9V6D-50" value="" style="endArrow=classic;html=1;rounded=0;entryX=0.5;entryY=1;entryDx=0;entryDy=0;" edge="1" parent="1" target="QgVTkhxCrHXW8KOB9V6D-42">
          <mxGeometry width="50" height="50" relative="1" as="geometry">
            <mxPoint x="750" y="340" as="sourcePoint" />
            <mxPoint x="815" y="250" as="targetPoint" />
          </mxGeometry>
        </mxCell>
        <mxCell id="QgVTkhxCrHXW8KOB9V6D-51" value="+1" style="text;html=1;align=center;verticalAlign=middle;resizable=0;points=[];autosize=1;strokeColor=none;fillColor=none;" vertex="1" parent="1">
          <mxGeometry x="740" y="318" width="40" height="30" as="geometry" />
        </mxCell>
        <mxCell id="QgVTkhxCrHXW8KOB9V6D-65" value="Mem" style="rounded=0;whiteSpace=wrap;html=1;" vertex="1" parent="1">
          <mxGeometry x="610" y="50" width="70" height="40" as="geometry" />
        </mxCell>
        <mxCell id="QgVTkhxCrHXW8KOB9V6D-71" style="edgeStyle=orthogonalEdgeStyle;rounded=0;orthogonalLoop=1;jettySize=auto;html=1;entryX=0;entryY=0.25;entryDx=0;entryDy=0;exitX=1;exitY=0.5;exitDx=0;exitDy=-5;exitPerimeter=0;" edge="1" parent="1" source="QgVTkhxCrHXW8KOB9V6D-66" target="QgVTkhxCrHXW8KOB9V6D-70">
          <mxGeometry relative="1" as="geometry" />
        </mxCell>
        <mxCell id="QgVTkhxCrHXW8KOB9V6D-66" value="Mux" style="shadow=0;dashed=0;align=center;html=1;strokeWidth=1;shape=mxgraph.electrical.abstract.mux2;whiteSpace=wrap;" vertex="1" parent="1">
          <mxGeometry x="730" y="20" width="40" height="80" as="geometry" />
        </mxCell>
        <mxCell id="QgVTkhxCrHXW8KOB9V6D-67" style="edgeStyle=orthogonalEdgeStyle;rounded=0;orthogonalLoop=1;jettySize=auto;html=1;entryX=0.186;entryY=0.661;entryDx=0;entryDy=0;entryPerimeter=0;" edge="1" parent="1" source="QgVTkhxCrHXW8KOB9V6D-65" target="QgVTkhxCrHXW8KOB9V6D-66">
          <mxGeometry relative="1" as="geometry" />
        </mxCell>
        <mxCell id="QgVTkhxCrHXW8KOB9V6D-68" value="" style="endArrow=classic;html=1;rounded=0;entryX=0.25;entryY=1;entryDx=10;entryDy=0;entryPerimeter=0;" edge="1" parent="1" target="QgVTkhxCrHXW8KOB9V6D-66">
          <mxGeometry width="50" height="50" relative="1" as="geometry">
            <mxPoint x="750" y="140" as="sourcePoint" />
            <mxPoint x="785" y="120" as="targetPoint" />
          </mxGeometry>
        </mxCell>
        <mxCell id="QgVTkhxCrHXW8KOB9V6D-69" value="Opcode" style="text;html=1;align=center;verticalAlign=middle;resizable=0;points=[];autosize=1;strokeColor=none;fillColor=none;" vertex="1" parent="1">
          <mxGeometry x="715" y="135" width="70" height="30" as="geometry" />
        </mxCell>
        <mxCell id="QgVTkhxCrHXW8KOB9V6D-70" value="Comparator" style="rounded=0;whiteSpace=wrap;html=1;" vertex="1" parent="1">
          <mxGeometry x="820" y="100" width="80" height="27" as="geometry" />
        </mxCell>
        <mxCell id="QgVTkhxCrHXW8KOB9V6D-73" value="Mux" style="shadow=0;dashed=0;align=center;html=1;strokeWidth=1;shape=mxgraph.electrical.abstract.mux2;whiteSpace=wrap;" vertex="1" parent="1">
          <mxGeometry x="910" y="20" width="40" height="80" as="geometry" />
        </mxCell>
        <mxCell id="QgVTkhxCrHXW8KOB9V6D-74" style="edgeStyle=orthogonalEdgeStyle;rounded=0;orthogonalLoop=1;jettySize=auto;html=1;entryX=0.25;entryY=1;entryDx=10;entryDy=0;entryPerimeter=0;" edge="1" parent="1" source="QgVTkhxCrHXW8KOB9V6D-70" target="QgVTkhxCrHXW8KOB9V6D-73">
          <mxGeometry relative="1" as="geometry" />
        </mxCell>
        <mxCell id="QgVTkhxCrHXW8KOB9V6D-78" value="" style="endArrow=classic;html=1;rounded=0;entryX=0;entryY=0.2;entryDx=0;entryDy=3;entryPerimeter=0;exitX=0.888;exitY=0.437;exitDx=0;exitDy=0;exitPerimeter=0;" edge="1" parent="1" source="QgVTkhxCrHXW8KOB9V6D-66" target="QgVTkhxCrHXW8KOB9V6D-73">
          <mxGeometry width="50" height="50" relative="1" as="geometry">
            <mxPoint x="760" y="110" as="sourcePoint" />
            <mxPoint x="955" y="110" as="targetPoint" />
            <Array as="points">
              <mxPoint x="766" y="40" />
            </Array>
          </mxGeometry>
        </mxCell>
        <mxCell id="QgVTkhxCrHXW8KOB9V6D-80" value="" style="endArrow=classic;html=1;rounded=0;entryX=0;entryY=0.6000000000000001;entryDx=0;entryDy=3;entryPerimeter=0;" edge="1" parent="1" target="QgVTkhxCrHXW8KOB9V6D-73">
          <mxGeometry width="50" height="50" relative="1" as="geometry">
            <mxPoint x="820" y="71" as="sourcePoint" />
            <mxPoint x="855" y="120" as="targetPoint" />
          </mxGeometry>
        </mxCell>
        <mxCell id="QgVTkhxCrHXW8KOB9V6D-81" value="Demux B" style="text;html=1;align=center;verticalAlign=middle;resizable=0;points=[];autosize=1;strokeColor=none;fillColor=none;" vertex="1" parent="1">
          <mxGeometry x="800" y="50" width="70" height="30" as="geometry" />
        </mxCell>
        <mxCell id="QgVTkhxCrHXW8KOB9V6D-99" style="edgeStyle=orthogonalEdgeStyle;rounded=0;orthogonalLoop=1;jettySize=auto;html=1;entryX=0.5;entryY=1;entryDx=0;entryDy=0;" edge="1" parent="1" source="QgVTkhxCrHXW8KOB9V6D-82" target="QgVTkhxCrHXW8KOB9V6D-97">
          <mxGeometry relative="1" as="geometry" />
        </mxCell>
        <mxCell id="QgVTkhxCrHXW8KOB9V6D-130" style="edgeStyle=orthogonalEdgeStyle;rounded=0;orthogonalLoop=1;jettySize=auto;html=1;entryX=0.5;entryY=1;entryDx=0;entryDy=0;" edge="1" parent="1" source="QgVTkhxCrHXW8KOB9V6D-82" target="QgVTkhxCrHXW8KOB9V6D-128">
          <mxGeometry relative="1" as="geometry" />
        </mxCell>
        <mxCell id="QgVTkhxCrHXW8KOB9V6D-82" value="&lt;font style=&quot;font-size: 24px;&quot;&gt;out Mux&lt;/font&gt;" style="rounded=0;whiteSpace=wrap;html=1;direction=south;" vertex="1" parent="1">
          <mxGeometry x="1100" y="20" width="150" height="580" as="geometry" />
        </mxCell>
        <mxCell id="QgVTkhxCrHXW8KOB9V6D-83" style="edgeStyle=orthogonalEdgeStyle;rounded=0;orthogonalLoop=1;jettySize=auto;html=1;entryX=0.062;entryY=0.978;entryDx=0;entryDy=0;entryPerimeter=0;exitX=1;exitY=0.5;exitDx=0;exitDy=-5;exitPerimeter=0;" edge="1" parent="1" source="QgVTkhxCrHXW8KOB9V6D-73" target="QgVTkhxCrHXW8KOB9V6D-82">
          <mxGeometry relative="1" as="geometry" />
        </mxCell>
        <mxCell id="QgVTkhxCrHXW8KOB9V6D-84" style="edgeStyle=orthogonalEdgeStyle;rounded=0;orthogonalLoop=1;jettySize=auto;html=1;entryX=0.298;entryY=0.972;entryDx=0;entryDy=0;entryPerimeter=0;" edge="1" parent="1" source="QgVTkhxCrHXW8KOB9V6D-40" target="QgVTkhxCrHXW8KOB9V6D-82">
          <mxGeometry relative="1" as="geometry" />
        </mxCell>
        <mxCell id="QgVTkhxCrHXW8KOB9V6D-85" style="edgeStyle=orthogonalEdgeStyle;rounded=0;orthogonalLoop=1;jettySize=auto;html=1;exitX=1;exitY=0.25;exitDx=0;exitDy=0;entryX=0.365;entryY=0.981;entryDx=0;entryDy=0;entryPerimeter=0;" edge="1" parent="1" source="QgVTkhxCrHXW8KOB9V6D-41" target="QgVTkhxCrHXW8KOB9V6D-82">
          <mxGeometry relative="1" as="geometry" />
        </mxCell>
        <mxCell id="QgVTkhxCrHXW8KOB9V6D-87" style="edgeStyle=orthogonalEdgeStyle;rounded=0;orthogonalLoop=1;jettySize=auto;html=1;exitX=1;exitY=1;exitDx=0;exitDy=0;entryX=0.415;entryY=0.987;entryDx=0;entryDy=0;entryPerimeter=0;" edge="1" parent="1" source="QgVTkhxCrHXW8KOB9V6D-41" target="QgVTkhxCrHXW8KOB9V6D-82">
          <mxGeometry relative="1" as="geometry">
            <Array as="points">
              <mxPoint x="955" y="260" />
            </Array>
          </mxGeometry>
        </mxCell>
        <mxCell id="QgVTkhxCrHXW8KOB9V6D-88" value="Carry_out" style="edgeLabel;html=1;align=center;verticalAlign=middle;resizable=0;points=[];" vertex="1" connectable="0" parent="QgVTkhxCrHXW8KOB9V6D-87">
          <mxGeometry x="-0.8355" y="1" relative="1" as="geometry">
            <mxPoint x="26" as="offset" />
          </mxGeometry>
        </mxCell>
        <mxCell id="QgVTkhxCrHXW8KOB9V6D-89" style="edgeStyle=orthogonalEdgeStyle;rounded=0;orthogonalLoop=1;jettySize=auto;html=1;entryX=0.462;entryY=0.997;entryDx=0;entryDy=0;entryPerimeter=0;" edge="1" parent="1" source="QgVTkhxCrHXW8KOB9V6D-42" target="QgVTkhxCrHXW8KOB9V6D-82">
          <mxGeometry relative="1" as="geometry" />
        </mxCell>
        <mxCell id="QgVTkhxCrHXW8KOB9V6D-90" style="edgeStyle=orthogonalEdgeStyle;rounded=0;orthogonalLoop=1;jettySize=auto;html=1;exitX=1;exitY=0.5;exitDx=0;exitDy=0;entryX=0.602;entryY=0.992;entryDx=0;entryDy=0;entryPerimeter=0;" edge="1" parent="1" source="QgVTkhxCrHXW8KOB9V6D-43" target="QgVTkhxCrHXW8KOB9V6D-82">
          <mxGeometry relative="1" as="geometry" />
        </mxCell>
        <mxCell id="QgVTkhxCrHXW8KOB9V6D-91" style="edgeStyle=orthogonalEdgeStyle;rounded=0;orthogonalLoop=1;jettySize=auto;html=1;entryX=0.687;entryY=0.985;entryDx=0;entryDy=0;entryPerimeter=0;" edge="1" parent="1" source="QgVTkhxCrHXW8KOB9V6D-44" target="QgVTkhxCrHXW8KOB9V6D-82">
          <mxGeometry relative="1" as="geometry" />
        </mxCell>
        <mxCell id="QgVTkhxCrHXW8KOB9V6D-92" style="edgeStyle=orthogonalEdgeStyle;rounded=0;orthogonalLoop=1;jettySize=auto;html=1;entryX=0.765;entryY=0.978;entryDx=0;entryDy=0;entryPerimeter=0;" edge="1" parent="1" source="QgVTkhxCrHXW8KOB9V6D-45" target="QgVTkhxCrHXW8KOB9V6D-82">
          <mxGeometry relative="1" as="geometry">
            <Array as="points">
              <mxPoint x="955" y="462" />
              <mxPoint x="955" y="460" />
              <mxPoint x="1103" y="460" />
            </Array>
          </mxGeometry>
        </mxCell>
        <mxCell id="QgVTkhxCrHXW8KOB9V6D-93" style="edgeStyle=orthogonalEdgeStyle;rounded=0;orthogonalLoop=1;jettySize=auto;html=1;entryX=0.843;entryY=0.979;entryDx=0;entryDy=0;entryPerimeter=0;" edge="1" parent="1" source="QgVTkhxCrHXW8KOB9V6D-46" target="QgVTkhxCrHXW8KOB9V6D-82">
          <mxGeometry relative="1" as="geometry" />
        </mxCell>
        <mxCell id="QgVTkhxCrHXW8KOB9V6D-94" value="" style="endArrow=classic;html=1;rounded=0;entryX=0.54;entryY=0.994;entryDx=0;entryDy=0;entryPerimeter=0;" edge="1" parent="1" target="QgVTkhxCrHXW8KOB9V6D-82">
          <mxGeometry width="50" height="50" relative="1" as="geometry">
            <mxPoint x="860" y="333" as="sourcePoint" />
            <mxPoint x="1045" y="330" as="targetPoint" />
          </mxGeometry>
        </mxCell>
        <mxCell id="QgVTkhxCrHXW8KOB9V6D-95" value="Flags" style="text;html=1;align=center;verticalAlign=middle;resizable=0;points=[];autosize=1;strokeColor=none;fillColor=none;" vertex="1" parent="1">
          <mxGeometry x="835" y="308" width="50" height="30" as="geometry" />
        </mxCell>
        <mxCell id="QgVTkhxCrHXW8KOB9V6D-96" value="" style="group" vertex="1" connectable="0" parent="1">
          <mxGeometry x="1420" y="220" width="60" height="120" as="geometry" />
        </mxCell>
        <mxCell id="QgVTkhxCrHXW8KOB9V6D-97" value="Y" style="rounded=0;whiteSpace=wrap;html=1;direction=south;movable=1;resizable=1;rotatable=1;deletable=1;editable=1;locked=0;connectable=1;container=0;" vertex="1" parent="QgVTkhxCrHXW8KOB9V6D-96">
          <mxGeometry width="60" height="120" as="geometry" />
        </mxCell>
        <mxCell id="QgVTkhxCrHXW8KOB9V6D-98" value="" style="triangle;whiteSpace=wrap;html=1;movable=1;resizable=1;rotatable=1;deletable=1;editable=1;locked=0;connectable=1;container=0;" vertex="1" parent="QgVTkhxCrHXW8KOB9V6D-96">
          <mxGeometry y="90" width="20" height="20" as="geometry" />
        </mxCell>
        <mxCell id="QgVTkhxCrHXW8KOB9V6D-127" value="" style="group" vertex="1" connectable="0" parent="1">
          <mxGeometry x="1420" y="400" width="60" height="120" as="geometry" />
        </mxCell>
        <mxCell id="QgVTkhxCrHXW8KOB9V6D-128" value="Carry out" style="rounded=0;whiteSpace=wrap;html=1;direction=south;movable=1;resizable=1;rotatable=1;deletable=1;editable=1;locked=0;connectable=1;container=0;" vertex="1" parent="QgVTkhxCrHXW8KOB9V6D-127">
          <mxGeometry width="60" height="120" as="geometry" />
        </mxCell>
        <mxCell id="QgVTkhxCrHXW8KOB9V6D-129" value="" style="triangle;whiteSpace=wrap;html=1;movable=1;resizable=1;rotatable=1;deletable=1;editable=1;locked=0;connectable=1;container=0;" vertex="1" parent="QgVTkhxCrHXW8KOB9V6D-127">
          <mxGeometry y="90" width="20" height="20" as="geometry" />
        </mxCell>
      </root>
    </mxGraphModel>
  </diagram>
</mxfile>
